HIERARCHY
ROOT hips
{
	OFFSET 0.000000 29.995300 -0.000000
	CHANNELS 6 Xposition Yposition Zposition Zrotation Yrotation Xrotation 
	JOINT Chest
	{
		OFFSET 0.000000 10.123600 0.695200
		CHANNELS 3 Zrotation Yrotation Xrotation
		JOINT Chest2
		{
			OFFSET 0.000000 15.405600 0.012300
			CHANNELS 3 Zrotation Yrotation Xrotation
			JOINT Chest3
			{
				OFFSET 0.000000 11.482400 -0.009100
				CHANNELS 3 Zrotation Yrotation Xrotation
				JOINT Neck
				{
					OFFSET 0.000000 25.678300 -0.023300
					CHANNELS 3 Zrotation Yrotation Xrotation
					JOINT Head
					{
						OFFSET 0.000000 13.458800 0.864200
						CHANNELS 3 Zrotation Yrotation Xrotation
						JOINT Head_End
						{
							OFFSET 0.000000 11.713200 -0.000000
							CHANNELS 3 Zrotation Yrotation Xrotation
							End Site
							{
								OFFSET 0.005000 0.000000 0.000000
							}
						}
					}
				}
				JOINT LeftCollar
				{
					OFFSET 12.227600 21.516500 -0.711700
					CHANNELS 3 Zrotation Yrotation Xrotation
					JOINT LeftShoulder
					{
						OFFSET 10.451400 0.021300 -0.002200
						CHANNELS 3 Zrotation Yrotation Xrotation
						JOINT LeftElbow
						{
							OFFSET 26.123400 0.000000 0.000000
							CHANNELS 3 Zrotation Yrotation Xrotation
							JOINT LeftWrist
							{
								OFFSET 25.245600 0.035600 0.002400
								CHANNELS 3 Zrotation Yrotation Xrotation
								JOINT Middle_00_L
								{
									OFFSET 11.653500 0.000000 0.000000
									CHANNELS 3 Zrotation Yrotation Xrotation
									JOINT Middle_01_L
									{
										OFFSET 4.384300 0.000000 0.000000
										CHANNELS 3 Zrotation Yrotation Xrotation
										JOINT Middle_02_L
										{
											OFFSET 3.470400 -0.000300 0.000000
											CHANNELS 3 Zrotation Yrotation Xrotation
											JOINT Middle_03_L
											{
												OFFSET 2.422200 0.000300 0.000000
												CHANNELS 3 Zrotation Yrotation Xrotation
												End Site
												{
													OFFSET 0.005000 0.000000 0.000000
												}
											}
										}
									}
								}
								JOINT Index_00_L
								{
									OFFSET 11.320700 0.000000 3.214800
									CHANNELS 3 Zrotation Yrotation Xrotation
									JOINT Index_01_L
									{
										OFFSET 3.752500 0.000000 0.000000
										CHANNELS 3 Zrotation Yrotation Xrotation
										JOINT Index_02_L
										{
											OFFSET 2.704900 0.000000 0.000300
											CHANNELS 3 Zrotation Yrotation Xrotation
											JOINT Index_03_L
											{
												OFFSET 2.288400 0.000000 -0.000300
												CHANNELS 3 Zrotation Yrotation Xrotation
												End Site
												{
													OFFSET 0.005000 0.000000 0.000000
												}
											}
										}
									}
								}
								JOINT Thumb_00_L
								{
									OFFSET 2.189000 0.000000 5.112700
									CHANNELS 3 Zrotation Yrotation Xrotation
									JOINT Thumb_01_L
									{
										OFFSET 5.672300 0.000000 0.000000
										CHANNELS 3 Zrotation Yrotation Xrotation
										JOINT Thumb_02_L
										{
											OFFSET 3.353600 0.000000 0.000400
											CHANNELS 3 Zrotation Yrotation Xrotation
											JOINT Thumb_03_L
											{
												OFFSET 3.066600 0.000000 -0.000400
												CHANNELS 3 Zrotation Yrotation Xrotation
												End Site
												{
													OFFSET 0.005000 0.000000 0.000000
												}
											}
										}
									}
								}
								JOINT Ring_00_L
								{
									OFFSET 11.421100 0.000000 -3.087400
									CHANNELS 3 Zrotation Yrotation Xrotation
									JOINT Ring_01_L
									{
										OFFSET 4.107700 0.000000 0.000000
										CHANNELS 3 Zrotation Yrotation Xrotation
										JOINT Ring_02_L
										{
											OFFSET 2.971800 0.000000 0.000500
											CHANNELS 3 Zrotation Yrotation Xrotation
											JOINT Ring_03_L
											{
												OFFSET 2.159200 0.000000 -0.000500
												CHANNELS 3 Zrotation Yrotation Xrotation
												End Site
												{
													OFFSET 0.005000 0.000000 0.000000
												}
											}
										}
									}
								}
								JOINT Little_00_L
								{
									OFFSET 10.838200 0.000000 -5.836000
									CHANNELS 3 Zrotation Yrotation Xrotation
									JOINT Little_01_L
									{
										OFFSET 3.568800 0.000000 0.000000
										CHANNELS 3 Zrotation Yrotation Xrotation
										JOINT Little_02_L
										{
											OFFSET 2.336100 0.000000 0.000200
											CHANNELS 3 Zrotation Yrotation Xrotation
											JOINT Little_03_L
											{
												OFFSET 1.912900 0.000000 -0.000200
												CHANNELS 3 Zrotation Yrotation Xrotation
												End Site
												{
													OFFSET 0.005000 0.000000 0.000000
												}
											}
										}
									}
								}
							}
						}
					}
				}
				JOINT RightCollar
				{
					OFFSET -12.227600 21.516500 -0.711700
					CHANNELS 3 Zrotation Yrotation Xrotation
					JOINT RightShoulder
					{
						OFFSET -10.451300 0.021300 -0.002200
						CHANNELS 3 Zrotation Yrotation Xrotation
						JOINT RightElbow
						{
							OFFSET -26.123400 0.000000 0.000000
							CHANNELS 3 Zrotation Yrotation Xrotation
							JOINT RightWrist
							{
								OFFSET -25.245800 0.035400 0.002000
								CHANNELS 3 Zrotation Yrotation Xrotation
								JOINT Middle_00_R
								{
									OFFSET -11.654000 0.000000 0.000000
									CHANNELS 3 Zrotation Yrotation Xrotation
									JOINT Middle_01_R
									{
										OFFSET -4.408600 0.000000 0.000000
										CHANNELS 3 Zrotation Yrotation Xrotation
										JOINT Middle_02_R
										{
											OFFSET -3.470400 0.000000 0.000000
											CHANNELS 3 Zrotation Yrotation Xrotation
											JOINT Middle_03_R
											{
												OFFSET -2.422200 0.000000 0.000000
												CHANNELS 3 Zrotation Yrotation Xrotation
												End Site
												{
													OFFSET 0.005000 0.000000 0.000000
												}
											}
										}
									}
								}
								JOINT Ring_00_R
								{
									OFFSET -11.459300 0.000000 -3.067300
									CHANNELS 3 Zrotation Yrotation Xrotation
									JOINT Ring_01_R
									{
										OFFSET -4.107700 0.000000 0.000000
										CHANNELS 3 Zrotation Yrotation Xrotation
										JOINT Ring_02_R
										{
											OFFSET -2.971800 0.000000 0.000000
											CHANNELS 3 Zrotation Yrotation Xrotation
											JOINT Ring_03_R
											{
												OFFSET -2.159200 0.000000 0.000000
												CHANNELS 3 Zrotation Yrotation Xrotation
												End Site
												{
													OFFSET 0.005000 0.000000 0.000000
												}
											}
										}
									}
								}
								JOINT Little_00_R
								{
									OFFSET -10.887000 0.000000 -5.818300
									CHANNELS 3 Zrotation Yrotation Xrotation
									JOINT Little_01_R
									{
										OFFSET -3.568800 0.000000 0.000000
										CHANNELS 3 Zrotation Yrotation Xrotation
										JOINT Little_02_R
										{
											OFFSET -2.336100 0.000000 0.000000
											CHANNELS 3 Zrotation Yrotation Xrotation
											JOINT Little_03_R
											{
												OFFSET -1.912900 0.000000 0.000000
												CHANNELS 3 Zrotation Yrotation Xrotation
												End Site
												{
													OFFSET 0.005000 0.000000 0.000000
												}
											}
										}
									}
								}
								JOINT Index_00_R
								{
									OFFSET -11.333200 0.000000 3.234400
									CHANNELS 3 Zrotation Yrotation Xrotation
									JOINT Index_01_R
									{
										OFFSET -3.752500 0.000000 0.000000
										CHANNELS 3 Zrotation Yrotation Xrotation
										JOINT Index_02_R
										{
											OFFSET -2.704900 0.000000 0.000000
											CHANNELS 3 Zrotation Yrotation Xrotation
											JOINT Index_03_R
											{
												OFFSET -2.288400 0.000000 0.000000
												CHANNELS 3 Zrotation Yrotation Xrotation
												End Site
												{
													OFFSET 0.005000 0.000000 0.000000
												}
											}
										}
									}
								}
								JOINT Thumb_00_R
								{
									OFFSET -2.193600 -0.231700 5.095700
									CHANNELS 3 Zrotation Yrotation Xrotation
									JOINT Thumb_01_R
									{
										OFFSET -5.672200 0.231700 0.000000
										CHANNELS 3 Zrotation Yrotation Xrotation
										JOINT Thumb_02_R
										{
											OFFSET -3.353600 0.000000 0.000000
											CHANNELS 3 Zrotation Yrotation Xrotation
											JOINT Thumb_03_R
											{
												OFFSET -3.066500 0.000000 0.000000
												CHANNELS 3 Zrotation Yrotation Xrotation
												End Site
												{
													OFFSET 0.005000 0.000000 0.000000
												}
											}
										}
									}
								}
							}
						}
					}
				}
			}
		}
	}
	JOINT LeftHip
	{
		OFFSET 6.356900 0.000000 0.000000
		CHANNELS 3 Zrotation Yrotation Xrotation
		JOINT LeftKnee
		{
			OFFSET -0.000100 -37.930500 0.000000
			CHANNELS 3 Zrotation Yrotation Xrotation
			JOINT LeftAnkle
			{
				OFFSET -0.000100 -42.440200 -0.085400
				CHANNELS 3 Zrotation Yrotation Xrotation
				JOINT LeftToe
				{
					OFFSET 0.135400 -9.338000 13.882500
					CHANNELS 3 Zrotation Yrotation Xrotation
					End Site
					{
						OFFSET 0.005000 0.000000 0.000000
					}
				}
			}
		}
	}
	JOINT RightHip
	{
		OFFSET -6.356900 0.000000 0.000000
		CHANNELS 3 Zrotation Yrotation Xrotation
		JOINT RightKnee
		{
			OFFSET 0.000100 -37.930500 0.000000
			CHANNELS 3 Zrotation Yrotation Xrotation
			JOINT RightAnkle
			{
				OFFSET 0.000100 -42.440200 -0.085400
				CHANNELS 3 Zrotation Yrotation Xrotation
				JOINT RightToe
				{
					OFFSET -0.135400 -9.338000 13.882500
					CHANNELS 3 Zrotation Yrotation Xrotation
					End Site
					{
						OFFSET 0.005000 0.000000 0.000000
					}
				}
			}
		}
	}
}
MOTION
Frames: 4
Frame Time: 0.041667
-0.001700 85.556600 0.033300 8.931997 23.627999 17.681246 -7.260961 -0.646104 0.250816 -6.504260 -0.030098 0.873552 -1.066840 -17.324345 -7.022053 -12.583093 6.001007 22.118209 -7.873731 35.470022 -16.796761 0.000000 0.000000 0.000000 -19.304139 33.058065 179.507633 37.223022 9.952331 106.205508 179.723556 -56.349756 -179.997958 0.080479 -0.005239 -0.988820 0.000000 0.000000 0.607176 0.005215 0.000010 -0.110703 -0.012689 0.000454 -0.146434 0.022390 -0.001199 4.934506 0.000000 0.000000 0.746397 0.000014 0.006565 0.122572 -0.000022 -0.014325 0.164521 2.447046 -0.079831 2.056764 0.000000 0.000000 0.740482 -0.000002 0.007173 -0.014980 -0.000004 -0.015017 0.027776 4.260386 -0.094452 1.375350 0.000000 0.000000 0.754839 0.000000 0.009448 0.000229 -0.000006 -0.022452 0.026332 -6.917769 0.291382 2.291170 0.000000 0.000000 0.754038 -0.000001 0.004175 -0.008146 -0.000001 -0.009275 0.012467 0.441624 -0.014543 2.538997 20.204244 4.360433 -179.908682 -34.598089 -13.912997 124.590617 179.799630 41.976255 179.998882 -0.080308 0.004629 -0.724563 0.000000 0.000000 0.472622 0.000000 0.000000 0.008252 0.000000 0.000000 -0.001366 -7.969741 -5.107087 -8.050663 0.000000 0.000000 0.467721 0.000000 0.000000 -0.015015 0.000000 0.000000 0.025121 6.271931 -1.933901 -4.817211 0.000000 0.000000 0.481966 0.000000 0.000000 -0.004083 0.000000 0.000000 -0.000628 -1.013052 -2.505694 -6.799366 0.000000 0.000000 0.479930 0.000000 0.000000 0.003389 0.000000 0.000000 -0.007978 -3.109834 -2.403556 -3.139792 0.000035 0.004242 0.480870 0.000001 -0.004242 0.042897 0.000000 0.000000 0.013196 -4.610124 -2.491975 -2.359596 -21.884428 61.696432 -39.520939 0.000000 0.000000 32.217000 -27.664532 -24.378844 -1.383208 0.000000 0.000000 0.000000 -1.688422 -30.464890 -43.150594 0.000000 0.000000 39.327177 7.363345 12.813338 -10.004027 0.000000 0.000000 -0.000003 
-0.129000 84.415200 -0.548400 9.078050 23.200497 18.412296 -7.837206 -0.781301 0.662253 -6.350814 -0.169785 0.345263 -0.706265 -17.245929 -7.440046 -13.199552 6.531218 22.799004 -8.877085 36.626176 -17.842618 0.000000 0.000000 0.000000 -20.134049 32.941749 -0.051404 -36.708054 -10.408934 -75.708913 -180.000000 -56.532402 180.000000 0.080479 -0.005239 -0.988820 0.000000 0.000000 0.607176 0.005215 0.000010 -0.110703 -0.012689 0.000454 -0.146434 0.022390 -0.001199 4.934506 0.000000 0.000000 0.746397 0.000014 0.006565 0.122572 -0.000022 -0.014325 0.164521 2.447046 -0.079831 2.056764 0.000000 0.000000 0.740482 -0.000002 0.007173 -0.014980 -0.000004 -0.015017 0.027776 4.260386 -0.094452 1.375350 0.000000 0.000000 0.754839 0.000000 0.009448 0.000229 -0.000006 -0.022452 0.026332 -6.917769 0.291382 2.291170 0.000000 0.000000 0.754038 -0.000001 0.004175 -0.008146 -0.000001 -0.009275 0.012467 0.441624 -0.014543 2.538997 20.626529 4.323721 -0.042138 34.683451 14.399531 -53.435218 -180.000000 41.671997 -180.000000 -0.080308 0.004629 -0.724563 0.000000 0.000000 0.472622 0.000000 0.000000 0.008252 0.000000 0.000000 -0.001366 -7.969741 -5.107087 -8.050663 0.000000 0.000000 0.467721 0.000000 0.000000 -0.015015 0.000000 0.000000 0.025121 6.271931 -1.933901 -4.817211 0.000000 0.000000 0.481966 0.000000 0.000000 -0.004083 0.000000 0.000000 -0.000628 -1.013052 -2.505694 -6.799366 0.000000 0.000000 0.479930 0.000000 0.000000 0.003389 0.000000 0.000000 -0.007978 -3.109834 -2.403556 -3.139792 0.000035 0.004242 0.480870 0.000001 -0.004242 0.042897 0.000000 0.000000 0.013196 -4.610124 -2.491975 -2.359596 -20.632612 57.728689 -41.952060 0.000000 0.000000 37.990660 -27.713866 -21.906213 -5.312299 0.000000 0.000000 0.000000 -2.035810 -28.663099 -46.509039 0.000000 0.000000 43.557573 6.845900 11.333202 -11.754360 0.000000 0.000000 -0.000003 
-0.333500 83.507000 -1.085000 8.353527 23.500129 19.708218 -7.315358 -0.953073 0.445311 -5.888796 -0.376352 -0.170973 -0.273927 -17.835339 -7.896317 -14.114188 7.255631 23.508828 -9.886134 36.787234 -18.004774 0.000000 0.000000 0.000000 -21.181546 32.928004 -0.048688 -36.275861 -10.787994 -77.009130 -180.000000 -56.733803 180.000000 0.080479 -0.005239 -0.988820 0.000000 0.000000 0.607176 0.005215 0.000010 -0.110703 -0.012689 0.000454 -0.146434 0.022390 -0.001199 4.934506 0.000000 0.000000 0.746397 0.000014 0.006565 0.122572 -0.000022 -0.014325 0.164521 2.447046 -0.079831 2.056764 0.000000 0.000000 0.740482 -0.000002 0.007173 -0.014980 -0.000004 -0.015017 0.027776 4.260386 -0.094452 1.375350 0.000000 0.000000 0.754839 0.000000 0.009448 0.000229 -0.000006 -0.022452 0.026332 -6.917769 0.291382 2.291170 0.000000 0.000000 0.754038 -0.000001 0.004175 -0.008146 -0.000001 -0.009275 0.012467 0.441624 -0.014543 2.538997 21.097838 4.219049 -0.041222 34.436291 15.224124 -51.825651 -180.000000 41.402298 -180.000000 -0.080308 0.004629 -0.724563 0.000000 0.000000 0.472622 0.000000 0.000000 0.008252 0.000000 0.000000 -0.001366 -7.969741 -5.107087 -8.050663 0.000000 0.000000 0.467721 0.000000 0.000000 -0.015015 0.000000 0.000000 0.025121 6.271931 -1.933901 -4.817211 0.000000 0.000000 0.481966 0.000000 0.000000 -0.004083 0.000000 0.000000 -0.000628 -1.013052 -2.505694 -6.799366 0.000000 0.000000 0.479930 0.000000 0.000000 0.003389 0.000000 0.000000 -0.007978 -3.109834 -2.403556 -3.139792 0.000035 0.004242 0.480870 0.000001 -0.004242 0.042897 0.000000 0.000000 0.013196 -4.610124 -2.491975 -2.359596 -20.598715 54.061124 -46.124706 0.000000 0.000000 42.586791 -26.084983 -19.878299 -8.770506 0.000000 0.000000 0.000000 -0.760700 -27.609050 -50.106638 0.000000 0.000000 46.364794 6.249452 10.075809 -12.893020 0.000000 0.000000 -0.000003 
-0.474300 82.663500 -1.597200 7.085659 23.920615 21.360272 -6.244325 -0.951082 -0.440344 -5.132442 -0.448189 -0.407547 0.115440 -18.669227 -7.957765 -15.402920 8.130775 23.825172 -10.845316 36.240793 -18.540765 0.000000 0.000000 0.000000 -22.409496 33.008723 -0.046960 -35.937581 -11.424782 -78.183842 -180.000000 -56.961700 180.000000 0.080479 -0.005239 -0.988820 0.000000 0.000000 0.607176 0.005215 0.000010 -0.110703 -0.012689 0.000454 -0.146434 0.022390 -0.001199 4.934506 0.000000 0.000000 0.746397 0.000014 0.006565 0.122572 -0.000022 -0.014325 0.164521 2.447046 -0.079831 2.056764 0.000000 0.000000 0.740482 -0.000002 0.007173 -0.014980 -0.000004 -0.015017 0.027776 4.260386 -0.094452 1.375350 0.000000 0.000000 0.754839 0.000000 0.009448 0.000229 -0.000006 -0.022452 0.026332 -6.917769 0.291382 2.291170 0.000000 0.000000 0.754038 -0.000001 0.004175 -0.008146 -0.000001 -0.009275 0.012467 0.441624 -0.014543 2.538997 21.636335 4.056155 -0.040508 33.858832 16.378614 -50.247737 -180.000000 41.164200 -180.000000 -0.080308 0.004629 -0.724563 0.000000 0.000000 0.472622 0.000000 0.000000 0.008252 0.000000 0.000000 -0.001366 -7.969741 -5.107087 -8.050663 0.000000 0.000000 0.467721 0.000000 0.000000 -0.015015 0.000000 0.000000 0.025121 6.271931 -1.933901 -4.817211 0.000000 0.000000 0.481966 0.000000 0.000000 -0.004083 0.000000 0.000000 -0.000628 -1.013052 -2.505694 -6.799366 0.000000 0.000000 0.479930 0.000000 0.000000 0.003389 0.000000 0.000000 -0.007978 -3.109834 -2.403556 -3.139792 0.000035 0.004242 0.480870 0.000001 -0.004242 0.042897 0.000000 0.000000 0.013196 -4.610124 -2.491975 -2.359596 -20.694776 50.495428 -50.766711 0.000000 0.000000 46.495579 -24.383777 -17.789058 -11.955019 0.000000 0.000000 0.000000 1.008664 -26.222902 -53.920242 0.000000 0.000000 48.616619 6.172749 8.610790 -13.748143 0.000000 0.000000 -0.000003 
